# This file uses centimeters as units for non-parametric coordinates.

mtllib MENU_PARTE_7.mtl
g default
v 33.529182 -0.043999 -50.508965
v 34.630356 -0.045364 -63.265533
v 21.830666 -0.038322 -64.384308
v 20.616257 -0.053986 -51.547516
v 25.780304 -0.097679 45.839191
v 12.867371 -0.107658 44.800636
v 33.190468 0.138634 -50.544205
v 34.306854 0.137260 -63.299171
v 22.312019 0.144310 -64.333130
v 21.088905 0.128647 -51.497246
v 13.190094 0.074974 44.835110
v 25.291641 0.084953 45.788151
vt 0.660000 0.540000
vt 0.670000 0.540000
vt 0.670000 0.550000
vt 0.660000 0.550000
vt 0.000000 0.000000
vt 1.000000 0.000000
vt 1.000000 1.000000
vt 0.000000 1.000000
vt 0.660000 0.540000
vt 0.670000 0.540000
vt 0.670000 0.550000
vt 0.660000 0.550000
vt 0.000000 0.000000
vt 1.000000 0.000000
vt 1.000000 1.000000
vt 0.000000 1.000000
vt 0.660000 0.540000
vt 0.670000 0.540000
vt 0.670000 0.550000
vt 0.660000 0.550000
vt 1.000000 0.000000
vt 1.000000 1.000000
vt 0.000000 1.000000
vt 0.000000 0.000000
vn -0.000781 1.000000 0.000493
vn -0.000167 1.000000 0.000543
vn -0.000167 1.000000 0.000543
vn -0.000783 1.000000 0.000493
vn -0.000863 1.000000 0.000486
vn -0.000863 1.000000 0.000486
vn 0.000736 -1.000000 -0.000498
vn 0.000737 -1.000000 -0.000498
vn 0.000160 -1.000000 -0.000544
vn 0.000160 -1.000000 -0.000544
vn 0.000813 -1.000000 -0.000492
vn 0.000813 -1.000000 -0.000492
vn 0.408561 0.912101 0.033898
vn 0.479235 0.876702 0.041563
vn 0.479235 0.876702 0.041563
vn 0.408881 0.911957 0.033933
vn 0.086499 0.010456 -0.996197
vn 0.086499 0.010456 -0.996197
vn 0.086499 0.010456 -0.996197
vn 0.086499 0.010456 -0.996197
vn -0.354358 0.934545 -0.032505
vn -0.406072 0.913243 -0.033052
vn -0.406364 0.913113 -0.033055
vn -0.354358 0.934545 -0.032505
vn -0.414189 0.909588 -0.033130
vn -0.414189 0.909588 -0.033130
vn -0.079371 0.009154 0.996803
vn -0.079371 0.009154 0.996803
vn -0.079371 0.009154 0.996803
vn -0.079371 0.009154 0.996803
vn 0.400759 0.915587 0.033056
vn 0.400759 0.915587 0.033056
s 1
g CARRETERA
usemtl aiStandardSurface5SG
f 7/17/1 8/18/2 9/19/3 10/20/4
f 7/24/1 10/21/4 11/22/5 12/23/6
s 2
f 1/9/7 4/12/8 3/11/9 2/10/10
f 1/13/7 5/16/11 6/15/12 4/14/8
s 3
f 1/1/13 2/2/14 8/18/15 7/17/16
s off
f 2/2/17 3/3/18 9/19/19 8/18/20
s 4
f 3/3/21 4/4/22 10/20/23 9/19/24
f 4/6/22 6/7/25 11/22/26 10/21/23
s off
f 6/7/27 5/8/28 12/23/29 11/22/30
s 3
f 5/8/31 1/5/13 7/24/16 12/23/32
