# This file uses centimeters as units for non-parametric coordinates.

mtllib MENU_PARTE_8.mtl
g default
v -7.689859 -0.000000 8.713090
v 80.785103 2.187397 8.713090
v -7.689859 2.187397 -79.761871
v 80.785103 2.187397 -79.761871
v -7.689859 -0.000000 -68.702499
v 80.785103 2.187397 -68.702499
v 69.725731 -0.000000 8.713090
v 69.725731 -0.000000 -68.702499
v 69.725731 2.187397 -79.761871
vt 0.000000 0.000000
vt 1.000000 0.000000
vt 0.000000 1.000000
vt 1.000000 1.000000
vt 0.000000 0.875000
vt 1.000000 0.875000
vt 0.875000 0.000000
vt 0.875000 0.875000
vt 0.875000 1.000000
vn -0.012154 0.983167 0.182304
vn 0.000000 0.980996 0.194028
vn 0.000000 0.999695 0.024716
vn -0.023137 0.999465 0.023137
vn -0.024716 0.999695 0.000000
vn 0.000000 1.000000 0.000000
vn -0.194028 0.980996 0.000000
vn -0.182304 0.983167 0.012154
vn -0.097940 0.990361 0.097940
s 1
g SUELO
usemtl initialShadingGroup
f 9/9/1 3/3/2 5/5/3 8/8/4
f 7/7/5 8/8/4 5/5/3 1/1/6
f 2/2/7 6/6/8 8/8/4 7/7/5
f 9/9/1 8/8/4 6/6/8 4/4/9
