# This file uses centimeters as units for non-parametric coordinates.

mtllib BARRIL.mtl
g default
v -0.152908 0.000000 -0.152908
v -0.152908 0.000000 0.152908
v -0.152908 0.598670 -0.152908
v -0.152908 0.598670 0.152908
v 0.152908 0.598670 -0.152908
v 0.152908 0.598670 0.152908
v 0.152908 0.000000 -0.152908
v 0.152908 0.000000 0.152908
vt 0.375000 0.000000
vt 0.625000 0.000000
vt 0.375000 0.250000
vt 0.625000 0.250000
vt 0.375000 0.500000
vt 0.625000 0.500000
vt 0.375000 0.750000
vt 0.625000 0.750000
vt 0.375000 1.000000
vt 0.625000 1.000000
vt 0.875000 0.000000
vt 0.875000 0.250000
vt 0.125000 0.000000
vt 0.125000 0.250000
vn -1.000000 0.000000 0.000000
vn -1.000000 0.000000 0.000000
vn -1.000000 0.000000 0.000000
vn -1.000000 0.000000 0.000000
vn 0.000000 1.000000 0.000000
vn 0.000000 1.000000 0.000000
vn 0.000000 1.000000 0.000000
vn 0.000000 1.000000 0.000000
vn 1.000000 0.000000 0.000000
vn 1.000000 0.000000 0.000000
vn 1.000000 0.000000 0.000000
vn 1.000000 0.000000 0.000000
vn 0.000000 -1.000000 0.000000
vn 0.000000 -1.000000 0.000000
vn 0.000000 -1.000000 0.000000
vn 0.000000 -1.000000 0.000000
vn 0.000000 0.000000 1.000000
vn 0.000000 0.000000 1.000000
vn 0.000000 0.000000 1.000000
vn 0.000000 0.000000 1.000000
vn 0.000000 0.000000 -1.000000
vn 0.000000 0.000000 -1.000000
vn 0.000000 0.000000 -1.000000
vn 0.000000 0.000000 -1.000000
s off
g BARRIL_1 BARRIL
usemtl initialShadingGroup
f 1/1/1 2/2/2 4/4/3 3/3/4
f 3/3/5 4/4/6 6/6/7 5/5/8
f 5/5/9 6/6/10 8/8/11 7/7/12
f 7/7/13 8/8/14 2/10/15 1/9/16
f 2/2/17 8/11/18 6/12/19 4/4/20
f 7/13/21 1/1/22 3/3/23 5/14/24
g default
v -0.087057 0.592820 0.049674
v -0.100389 0.592820 0.090699
v -0.087057 0.613325 0.049674
v -0.100389 0.613325 0.090699
v -0.046032 0.613325 0.063006
v -0.059364 0.613325 0.104031
v -0.046032 0.592820 0.063006
v -0.059364 0.592820 0.104031
vt 0.375000 0.000000
vt 0.625000 0.000000
vt 0.375000 0.250000
vt 0.625000 0.250000
vt 0.375000 0.500000
vt 0.625000 0.500000
vt 0.375000 0.750000
vt 0.625000 0.750000
vt 0.375000 1.000000
vt 0.625000 1.000000
vt 0.875000 0.000000
vt 0.875000 0.250000
vt 0.125000 0.000000
vt 0.125000 0.250000
vn -0.951041 0.000000 -0.309064
vn -0.951041 0.000000 -0.309064
vn -0.951041 0.000000 -0.309064
vn -0.951041 0.000000 -0.309064
vn -0.000002 1.000000 0.000000
vn -0.000002 1.000000 0.000000
vn -0.000002 1.000000 0.000000
vn -0.000002 1.000000 0.000000
vn 0.951042 0.000000 0.309061
vn 0.951042 0.000000 0.309061
vn 0.951042 0.000000 0.309061
vn 0.951042 0.000000 0.309061
vn 0.000000 -1.000000 0.000000
vn 0.000000 -1.000000 0.000000
vn 0.000000 -1.000000 0.000000
vn 0.000000 -1.000000 0.000000
vn -0.309063 0.000000 0.951042
vn -0.309063 0.000000 0.951042
vn -0.309063 0.000000 0.951042
vn -0.309063 0.000000 0.951042
vn 0.309063 0.000000 -0.951042
vn 0.309063 0.000000 -0.951042
vn 0.309063 0.000000 -0.951042
vn 0.309063 0.000000 -0.951042
s off
g BARRIL TAPON
usemtl initialShadingGroup
f 9/15/25 10/16/26 12/18/27 11/17/28
f 11/17/29 12/18/30 14/20/31 13/19/32
f 13/19/33 14/20/34 16/22/35 15/21/36
f 15/21/37 16/22/38 10/24/39 9/23/40
f 10/16/41 16/25/42 14/26/43 12/18/44
f 15/27/45 9/15/46 11/17/47 13/28/48
g default
v -0.157429 0.045694 -0.157429
v -0.157429 0.045694 0.157429
v -0.157429 0.009452 -0.157429
v -0.157429 0.009452 0.157429
v 0.157429 0.009452 -0.157429
v 0.157429 0.009452 0.157429
v 0.157429 0.045694 -0.157429
v 0.157429 0.045694 0.157429
vt 0.375000 0.000000
vt 0.625000 0.000000
vt 0.375000 0.250000
vt 0.625000 0.250000
vt 0.375000 0.500000
vt 0.625000 0.500000
vt 0.375000 0.750000
vt 0.625000 0.750000
vt 0.375000 1.000000
vt 0.625000 1.000000
vt 0.875000 0.000000
vt 0.875000 0.250000
vt 0.125000 0.000000
vt 0.125000 0.250000
vn -1.000000 0.000000 -0.000000
vn -1.000000 0.000000 -0.000000
vn -1.000000 0.000000 -0.000000
vn -1.000000 0.000000 -0.000000
vn 0.000000 -1.000000 0.000000
vn 0.000000 -1.000000 0.000000
vn 0.000000 -1.000000 0.000000
vn 0.000000 -1.000000 0.000000
vn 1.000000 0.000000 0.000000
vn 1.000000 0.000000 0.000000
vn 1.000000 0.000000 0.000000
vn 1.000000 0.000000 0.000000
vn 0.000000 1.000000 0.000000
vn 0.000000 1.000000 0.000000
vn 0.000000 1.000000 0.000000
vn 0.000000 1.000000 0.000000
vn 0.000000 0.000000 1.000000
vn 0.000000 0.000000 1.000000
vn 0.000000 0.000000 1.000000
vn 0.000000 0.000000 1.000000
vn 0.000000 0.000000 -1.000000
vn 0.000000 0.000000 -1.000000
vn 0.000000 0.000000 -1.000000
vn 0.000000 0.000000 -1.000000
s off
g BARRIL METAL_5
usemtl initialShadingGroup
f 17/29/49 19/31/50 20/32/51 18/30/52
f 19/31/53 21/33/54 22/34/55 20/32/56
f 21/33/57 23/35/58 24/36/59 22/34/60
f 23/35/61 17/37/62 18/38/63 24/36/64
f 18/30/65 20/32/66 22/40/67 24/39/68
f 23/41/69 21/42/70 19/31/71 17/29/72
g default
v -0.178833 0.157704 -0.178833
v -0.178833 0.157704 0.178833
v -0.178833 0.116535 -0.178833
v -0.178833 0.116535 0.178833
v 0.178833 0.116535 -0.178833
v 0.178833 0.116535 0.178833
v 0.178833 0.157704 -0.178833
v 0.178833 0.157704 0.178833
vt 0.375000 0.000000
vt 0.625000 0.000000
vt 0.375000 0.250000
vt 0.625000 0.250000
vt 0.375000 0.500000
vt 0.625000 0.500000
vt 0.375000 0.750000
vt 0.625000 0.750000
vt 0.375000 1.000000
vt 0.625000 1.000000
vt 0.875000 0.000000
vt 0.875000 0.250000
vt 0.125000 0.000000
vt 0.125000 0.250000
vn -1.000000 0.000000 0.000000
vn -1.000000 0.000000 0.000000
vn -1.000000 0.000000 0.000000
vn -1.000000 0.000000 0.000000
vn 0.000000 -1.000000 0.000000
vn 0.000000 -1.000000 0.000000
vn 0.000000 -1.000000 0.000000
vn 0.000000 -1.000000 0.000000
vn 1.000000 0.000000 0.000000
vn 1.000000 0.000000 0.000000
vn 1.000000 0.000000 0.000000
vn 1.000000 0.000000 0.000000
vn 0.000000 1.000000 0.000000
vn 0.000000 1.000000 0.000000
vn 0.000000 1.000000 0.000000
vn 0.000000 1.000000 0.000000
vn 0.000000 -0.000000 1.000000
vn 0.000000 -0.000000 1.000000
vn 0.000000 -0.000000 1.000000
vn 0.000000 -0.000000 1.000000
vn 0.000000 0.000000 -1.000000
vn 0.000000 0.000000 -1.000000
vn 0.000000 0.000000 -1.000000
vn 0.000000 0.000000 -1.000000
s off
g BARRIL METAL_4
usemtl initialShadingGroup
f 25/43/73 27/45/74 28/46/75 26/44/76
f 27/45/77 29/47/78 30/48/79 28/46/80
f 29/47/81 31/49/82 32/50/83 30/48/84
f 31/49/85 25/51/86 26/52/87 32/50/88
f 26/44/89 28/46/90 30/54/91 32/53/92
f 31/55/93 29/56/94 27/45/95 25/43/96
g default
v -0.189076 0.277572 -0.189076
v -0.189076 0.277572 0.189076
v -0.189076 0.321099 -0.189076
v -0.189076 0.321099 0.189076
v 0.189076 0.321099 -0.189076
v 0.189076 0.321099 0.189076
v 0.189076 0.277572 -0.189076
v 0.189076 0.277572 0.189076
vt 0.375000 0.000000
vt 0.625000 0.000000
vt 0.375000 0.250000
vt 0.625000 0.250000
vt 0.375000 0.500000
vt 0.625000 0.500000
vt 0.375000 0.750000
vt 0.625000 0.750000
vt 0.375000 1.000000
vt 0.625000 1.000000
vt 0.875000 0.000000
vt 0.875000 0.250000
vt 0.125000 0.000000
vt 0.125000 0.250000
vn -1.000000 0.000000 0.000000
vn -1.000000 0.000000 0.000000
vn -1.000000 0.000000 0.000000
vn -1.000000 0.000000 0.000000
vn 0.000000 1.000000 0.000000
vn 0.000000 1.000000 0.000000
vn 0.000000 1.000000 0.000000
vn 0.000000 1.000000 0.000000
vn 1.000000 0.000000 0.000000
vn 1.000000 0.000000 0.000000
vn 1.000000 0.000000 0.000000
vn 1.000000 0.000000 0.000000
vn 0.000000 -1.000000 0.000000
vn 0.000000 -1.000000 0.000000
vn 0.000000 -1.000000 0.000000
vn 0.000000 -1.000000 0.000000
vn 0.000000 0.000000 1.000000
vn 0.000000 0.000000 1.000000
vn 0.000000 0.000000 1.000000
vn 0.000000 0.000000 1.000000
vn 0.000000 0.000000 -1.000000
vn 0.000000 0.000000 -1.000000
vn 0.000000 0.000000 -1.000000
vn 0.000000 0.000000 -1.000000
s off
g BARRIL METAL_3
usemtl initialShadingGroup
f 33/57/97 34/58/98 36/60/99 35/59/100
f 35/59/101 36/60/102 38/62/103 37/61/104
f 37/61/105 38/62/106 40/64/107 39/63/108
f 39/63/109 40/64/110 34/66/111 33/65/112
f 34/58/113 40/67/114 38/68/115 36/60/116
f 39/69/117 33/57/118 35/59/119 37/70/120
g default
v -0.157429 0.552976 -0.157429
v -0.157429 0.552976 0.157429
v -0.157429 0.589218 -0.157429
v -0.157429 0.589218 0.157429
v 0.157429 0.589218 -0.157429
v 0.157429 0.589218 0.157429
v 0.157429 0.552976 -0.157429
v 0.157429 0.552976 0.157429
vt 0.375000 0.000000
vt 0.625000 0.000000
vt 0.375000 0.250000
vt 0.625000 0.250000
vt 0.375000 0.500000
vt 0.625000 0.500000
vt 0.375000 0.750000
vt 0.625000 0.750000
vt 0.375000 1.000000
vt 0.625000 1.000000
vt 0.875000 0.000000
vt 0.875000 0.250000
vt 0.125000 0.000000
vt 0.125000 0.250000
vn -1.000000 0.000000 -0.000000
vn -1.000000 0.000000 -0.000000
vn -1.000000 0.000000 -0.000000
vn -1.000000 0.000000 -0.000000
vn 0.000000 1.000000 0.000000
vn 0.000000 1.000000 0.000000
vn 0.000000 1.000000 0.000000
vn 0.000000 1.000000 0.000000
vn 1.000000 0.000000 0.000000
vn 1.000000 0.000000 0.000000
vn 1.000000 0.000000 0.000000
vn 1.000000 0.000000 0.000000
vn 0.000000 -1.000000 0.000000
vn 0.000000 -1.000000 0.000000
vn 0.000000 -1.000000 0.000000
vn 0.000000 -1.000000 0.000000
vn 0.000000 0.000000 1.000000
vn 0.000000 0.000000 1.000000
vn 0.000000 0.000000 1.000000
vn 0.000000 0.000000 1.000000
vn 0.000000 0.000000 -1.000000
vn 0.000000 0.000000 -1.000000
vn 0.000000 0.000000 -1.000000
vn 0.000000 0.000000 -1.000000
s off
g BARRIL METAL_1
usemtl initialShadingGroup
f 41/71/121 42/72/122 44/74/123 43/73/124
f 43/73/125 44/74/126 46/76/127 45/75/128
f 45/75/129 46/76/130 48/78/131 47/77/132
f 47/77/133 48/78/134 42/80/135 41/79/136
f 42/72/137 48/81/138 46/82/139 44/74/140
f 47/83/141 41/71/142 43/73/143 45/84/144
g default
v -0.166256 0.081319 -0.166256
v -0.166256 0.081319 0.166256
v -0.166256 0.517352 -0.166256
v -0.166256 0.517352 0.166256
v 0.166256 0.517352 -0.166256
v 0.166256 0.517352 0.166256
v 0.166256 0.081319 -0.166256
v 0.166256 0.081319 0.166256
vt 0.375000 0.000000
vt 0.625000 0.000000
vt 0.375000 0.250000
vt 0.625000 0.250000
vt 0.375000 0.500000
vt 0.625000 0.500000
vt 0.375000 0.750000
vt 0.625000 0.750000
vt 0.375000 1.000000
vt 0.625000 1.000000
vt 0.875000 0.000000
vt 0.875000 0.250000
vt 0.125000 0.000000
vt 0.125000 0.250000
vn -1.000000 0.000000 0.000000
vn -1.000000 0.000000 0.000000
vn -1.000000 0.000000 0.000000
vn -1.000000 0.000000 0.000000
vn 0.000000 1.000000 0.000000
vn 0.000000 1.000000 0.000000
vn 0.000000 1.000000 0.000000
vn 0.000000 1.000000 0.000000
vn 1.000000 0.000000 0.000000
vn 1.000000 0.000000 0.000000
vn 1.000000 0.000000 0.000000
vn 1.000000 0.000000 0.000000
vn 0.000000 -1.000000 0.000000
vn 0.000000 -1.000000 0.000000
vn 0.000000 -1.000000 0.000000
vn 0.000000 -1.000000 0.000000
vn 0.000000 0.000000 1.000000
vn 0.000000 0.000000 1.000000
vn 0.000000 0.000000 1.000000
vn 0.000000 0.000000 1.000000
vn 0.000000 0.000000 -1.000000
vn 0.000000 0.000000 -1.000000
vn 0.000000 0.000000 -1.000000
vn 0.000000 0.000000 -1.000000
s off
g BARRIL BARRIL_2
usemtl initialShadingGroup
f 49/85/145 50/86/146 52/88/147 51/87/148
f 51/87/149 52/88/150 54/90/151 53/89/152
f 53/89/153 54/90/154 56/92/155 55/91/156
f 55/91/157 56/92/158 50/94/159 49/93/160
f 50/86/161 56/95/162 54/96/163 52/88/164
f 55/97/165 49/85/166 51/87/167 53/98/168
g default
v -0.178833 0.440966 -0.178833
v -0.178833 0.440966 0.178833
v -0.178833 0.482135 -0.178833
v -0.178833 0.482135 0.178833
v 0.178833 0.482135 -0.178833
v 0.178833 0.482135 0.178833
v 0.178833 0.440966 -0.178833
v 0.178833 0.440966 0.178833
vt 0.375000 0.000000
vt 0.625000 0.000000
vt 0.375000 0.250000
vt 0.625000 0.250000
vt 0.375000 0.500000
vt 0.625000 0.500000
vt 0.375000 0.750000
vt 0.625000 0.750000
vt 0.375000 1.000000
vt 0.625000 1.000000
vt 0.875000 0.000000
vt 0.875000 0.250000
vt 0.125000 0.000000
vt 0.125000 0.250000
vn -1.000000 0.000000 0.000000
vn -1.000000 0.000000 0.000000
vn -1.000000 0.000000 0.000000
vn -1.000000 0.000000 0.000000
vn 0.000000 1.000000 0.000000
vn 0.000000 1.000000 0.000000
vn 0.000000 1.000000 0.000000
vn 0.000000 1.000000 0.000000
vn 1.000000 0.000000 0.000000
vn 1.000000 0.000000 0.000000
vn 1.000000 0.000000 0.000000
vn 1.000000 0.000000 0.000000
vn 0.000000 -1.000000 0.000000
vn 0.000000 -1.000000 0.000000
vn 0.000000 -1.000000 0.000000
vn 0.000000 -1.000000 0.000000
vn 0.000000 0.000000 1.000000
vn 0.000000 0.000000 1.000000
vn 0.000000 0.000000 1.000000
vn 0.000000 0.000000 1.000000
vn 0.000000 0.000000 -1.000000
vn 0.000000 0.000000 -1.000000
vn 0.000000 0.000000 -1.000000
vn 0.000000 0.000000 -1.000000
s off
g BARRIL METAL_2
usemtl initialShadingGroup
f 57/99/169 58/100/170 60/102/171 59/101/172
f 59/101/173 60/102/174 62/104/175 61/103/176
f 61/103/177 62/104/178 64/106/179 63/105/180
f 63/105/181 64/106/182 58/108/183 57/107/184
f 58/100/185 64/109/186 62/110/187 60/102/188
f 63/111/189 57/99/190 59/101/191 61/112/192
