# This file uses centimeters as units for non-parametric coordinates.

mtllib ARBOL_2.mtl
g default
v -0.450727 -0.805622 0.450727
v 0.450727 -0.805622 0.450727
v -0.450727 1.551093 0.450727
v 0.450727 1.551093 0.450727
v -0.450727 1.551093 -0.450727
v 0.450727 1.551093 -0.450727
v -0.450727 -0.805622 -0.450727
v 0.450727 -0.805622 -0.450727
vt 0.375000 0.000000
vt 0.625000 0.000000
vt 0.375000 0.250000
vt 0.625000 0.250000
vt 0.375000 0.500000
vt 0.625000 0.500000
vt 0.375000 0.750000
vt 0.625000 0.750000
vt 0.375000 1.000000
vt 0.625000 1.000000
vt 0.875000 0.000000
vt 0.875000 0.250000
vt 0.125000 0.000000
vt 0.125000 0.250000
vn 0.000000 0.000000 1.000000
vn 0.000000 0.000000 1.000000
vn 0.000000 0.000000 1.000000
vn 0.000000 0.000000 1.000000
vn 0.000000 1.000000 0.000000
vn 0.000000 1.000000 0.000000
vn 0.000000 1.000000 0.000000
vn 0.000000 1.000000 0.000000
vn 0.000000 0.000000 -1.000000
vn 0.000000 0.000000 -1.000000
vn 0.000000 0.000000 -1.000000
vn 0.000000 0.000000 -1.000000
vn 0.000000 -1.000000 0.000000
vn 0.000000 -1.000000 0.000000
vn 0.000000 -1.000000 0.000000
vn 0.000000 -1.000000 0.000000
vn 1.000000 0.000000 0.000000
vn 1.000000 0.000000 0.000000
vn 1.000000 0.000000 0.000000
vn 1.000000 0.000000 0.000000
vn -1.000000 0.000000 0.000000
vn -1.000000 0.000000 0.000000
vn -1.000000 0.000000 0.000000
vn -1.000000 0.000000 0.000000
s off
g TRONCO ARBOL_2
usemtl initialShadingGroup
f 1/1/1 2/2/2 4/4/3 3/3/4
f 3/3/5 4/4/6 6/6/7 5/5/8
f 5/5/9 6/6/10 8/8/11 7/7/12
f 7/7/13 8/8/14 2/10/15 1/9/16
f 2/2/17 8/11/18 6/12/19 4/4/20
f 7/13/21 1/1/22 3/3/23 5/14/24
g default
v -1.530125 1.535665 1.530125
v 1.530125 1.535665 1.530125
v -0.050846 7.591407 0.050846
v 0.050846 7.591407 0.050846
v -0.050846 7.591407 -0.050846
v 0.050846 7.591407 -0.050846
v -1.530125 1.535665 -1.530125
v 1.530125 1.535665 -1.530125
v -1.094947 4.515766 -1.094947
v -1.094947 4.515766 1.094947
v 1.094947 4.515766 1.094947
v 1.094947 4.515766 -1.094947
v -0.447489 4.515763 -0.447489
v -0.447489 4.515763 0.447489
v 0.447489 4.515763 0.447489
v 0.447489 4.515763 -0.447489
vt 0.375000 0.000000
vt 0.625000 0.000000
vt 0.375000 0.250000
vt 0.625000 0.250000
vt 0.375000 0.500000
vt 0.625000 0.500000
vt 0.375000 0.750000
vt 0.625000 0.750000
vt 0.375000 1.000000
vt 0.625000 1.000000
vt 0.875000 0.000000
vt 0.875000 0.250000
vt 0.125000 0.000000
vt 0.125000 0.250000
vt 0.125000 0.125000
vt 0.375000 0.625000
vt 0.375000 0.125000
vt 0.625000 0.125000
vt 0.625000 0.625000
vt 0.875000 0.125000
vt 0.125000 0.062500
vt 0.375000 0.687500
vt 0.375000 0.062500
vt 0.625000 0.062500
vt 0.625000 0.687500
vt 0.875000 0.062500
vn 0.000000 0.321457 0.946924
vn 0.000000 0.321457 0.946924
vn 0.000000 0.321457 0.946924
vn 0.000000 0.321457 0.946924
vn 0.000000 1.000000 0.000000
vn 0.000000 1.000000 0.000000
vn 0.000000 1.000000 0.000000
vn 0.000000 1.000000 0.000000
vn 0.000000 0.321457 -0.946924
vn 0.000000 0.321457 -0.946924
vn 0.000000 0.321456 -0.946924
vn 0.000000 0.321456 -0.946924
vn 0.000000 -1.000000 0.000000
vn 0.000000 -1.000000 0.000000
vn 0.000000 -1.000000 0.000000
vn 0.000000 -1.000000 0.000000
vn 0.946924 0.321456 0.000000
vn 0.946924 0.321456 0.000000
vn 0.946924 0.321456 0.000000
vn 0.946924 0.321456 0.000000
vn -0.946924 0.321456 0.000000
vn -0.946924 0.321456 0.000000
vn -0.946924 0.321456 0.000000
vn -0.946924 0.321456 0.000000
vn -0.000004 -1.000000 0.000000
vn -0.000004 -1.000000 0.000000
vn -0.000004 -1.000000 0.000000
vn -0.000004 -1.000000 0.000000
vn 0.000000 -1.000000 0.000004
vn 0.000000 -1.000000 0.000004
vn 0.000000 -1.000000 0.000004
vn 0.000000 -1.000000 0.000004
vn 0.000004 -1.000000 0.000000
vn 0.000004 -1.000000 0.000000
vn 0.000004 -1.000000 0.000000
vn 0.000004 -1.000000 0.000000
vn 0.000000 -1.000000 -0.000004
vn 0.000000 -1.000000 -0.000004
vn 0.000000 -1.000000 -0.000004
vn 0.000000 -1.000000 -0.000004
vn -0.939898 0.341454 0.000000
vn -0.939898 0.341454 0.000000
vn -0.939898 0.341454 0.000000
vn -0.939898 0.341454 0.000000
vn 0.000000 0.341454 0.939898
vn 0.000000 0.341454 0.939898
vn 0.000000 0.341454 0.939898
vn 0.000000 0.341454 0.939898
vn 0.939898 0.341454 0.000000
vn 0.939898 0.341454 0.000000
vn 0.939898 0.341454 0.000000
vn 0.939898 0.341454 0.000000
vn 0.000000 0.341454 -0.939898
vn 0.000000 0.341454 -0.939898
vn 0.000000 0.341454 -0.939898
vn 0.000000 0.341454 -0.939898
s off
g ARBOL_2 ARBOL
usemtl initialShadingGroup
f 18/31/25 19/32/26 12/18/27 11/17/28
f 11/17/29 12/18/30 14/20/31 13/19/32
f 13/19/33 14/20/34 20/33/35 17/30/36
f 15/21/37 16/22/38 10/24/39 9/23/40
f 19/32/41 20/34/42 14/26/43 12/18/44
f 17/29/45 18/31/46 11/17/47 13/28/48
f 21/35/49 22/37/50 18/31/51 17/29/52
f 22/37/53 23/38/54 19/32/55 18/31/56
f 23/38/57 24/40/58 20/34/59 19/32/60
f 17/30/61 20/33/62 24/39/63 21/36/64
f 15/27/65 9/15/66 22/37/67 21/35/68
f 9/15/69 10/16/70 23/38/71 22/37/72
f 10/16/73 16/25/74 24/40/75 23/38/76
f 21/36/77 24/39/78 16/22/79 15/21/80
