# This file uses centimeters as units for non-parametric coordinates.

mtllib PISTA_2.mtl
g default
v 131.454590 51.279831 178.062454
v 128.425140 51.269844 189.356110
v 111.853676 51.276428 171.896637
v 123.971489 51.286415 171.896637
v 125.299530 51.294525 168.502411
v 113.469910 51.284538 164.642807
v 131.187088 51.300751 164.553558
v 131.454605 51.310738 165.261139
v 135.004883 51.318848 164.700836
v 132.747971 51.308861 164.587067
v 126.750687 51.292645 164.597321
v 127.957298 51.302631 166.105194
v 113.922852 51.274235 180.985580
v 125.299530 51.284222 175.134552
v 120.961594 51.272038 187.317932
v 127.957306 51.282024 177.375244
v 134.809082 51.277634 164.723465
v 134.809082 51.267647 152.621918
v -14.836475 51.213974 152.621887
v -14.836491 51.223953 164.723450
v 145.806641 51.286415 171.268707
v 157.924469 51.276428 171.268707
v 134.809067 51.318848 178.440536
v 134.809067 51.308861 190.543427
v 138.323532 51.310738 177.904221
v 141.352997 51.300751 189.199127
v 141.820831 51.302631 177.060150
v 148.816544 51.292645 187.003967
v 144.478622 51.294525 174.662933
v 155.855270 51.284538 180.514633
v 144.478622 51.284222 168.030792
v 155.855286 51.274235 162.179779
v 141.820847 51.282024 165.790131
v 148.816559 51.272038 155.847443
v 138.323547 51.279831 165.102890
v 141.352997 51.269844 153.809235
v 138.251190 51.256420 145.857239
v 143.951233 51.257862 145.857239
v 150.387299 51.259300 145.857269
v 139.319290 51.245934 139.273132
v 145.019318 51.248158 139.273148
v 151.455399 51.250381 139.273163
v 138.740326 51.235268 132.687988
v 144.440369 51.237915 132.687988
v 150.876434 51.240562 132.688019
v 127.489525 48.321621 171.726654
v 108.302986 48.305805 171.726654
v 128.675552 48.331211 169.127960
v 109.945328 48.315395 163.016907
v 132.984955 48.346237 165.850616
v 131.282913 48.330425 164.345551
v 136.192627 48.355949 164.674347
v 132.619171 48.340137 164.494202
v 130.881699 48.339458 167.188446
v 127.746552 48.323647 164.123245
v 128.643524 48.320366 173.446075
v 110.630455 48.304554 182.710205
v 130.226807 48.318108 174.546051
v 119.150261 48.302296 190.288666
v 132.392029 48.309788 174.727051
v 127.751434 48.293976 192.392883
v 133.850204 48.320969 167.190948
v 134.510406 48.308105 150.157990
v -17.282207 48.228184 149.094727
v -17.282223 48.243984 168.255508
v 137.398682 48.315823 167.531311
v 142.585831 48.302620 151.959412
v 141.831284 48.321678 171.288483
v 161.433472 48.305862 171.248291
v 141.135330 48.330666 172.979691
v 159.148376 48.314854 182.244873
v 137.462875 48.346741 174.653015
v 142.057159 48.330925 192.237457
v 134.795349 48.361641 174.843445
v 134.795334 48.345829 194.006332
v 139.548462 48.338760 174.235107
v 150.624985 48.322948 189.979477
v 141.134613 48.320366 169.719269
v 159.147690 48.304554 160.455154
v 139.551331 48.318108 168.619293
v 150.102524 48.305302 154.161835
v 143.951813 48.290638 145.861725
v 136.864380 48.288498 145.710678
v 152.371094 48.291969 145.453323
v 145.020370 48.280937 139.277649
v 137.898087 48.278118 139.277924
v 153.573761 48.283913 139.277695
v 144.165359 48.267708 130.771851
v 136.910248 48.264229 130.771912
v 152.585907 48.271187 130.771790
vt 0.000000 0.000000
vt 1.000000 0.000000
vt 1.000000 0.250000
vt 0.000000 0.250000
vt 0.000000 0.750000
vt 1.000000 0.750000
vt 1.000000 1.000000
vt 0.000000 1.000000
vt 0.000000 0.500000
vt 1.000000 0.500000
vt 0.000000 0.750000
vt 1.000000 0.750000
vt 1.000000 1.000000
vt 0.000000 1.000000
vt 0.000000 0.500000
vt 1.000000 0.500000
vt 0.000000 0.250000
vt 1.000000 0.250000
vt 0.000000 0.000000
vt 1.000000 0.000000
vt 1.000000 1.000000
vt 0.000000 1.000000
vt 0.000000 0.000000
vt 1.000000 0.000000
vt 1.000000 0.250000
vt 0.000000 0.250000
vt 0.000000 0.000000
vt 1.000000 0.000000
vt 1.000000 0.250000
vt 0.000000 0.250000
vt 0.000000 0.750000
vt 1.000000 0.750000
vt 1.000000 1.000000
vt 0.000000 1.000000
vt 0.000000 0.500000
vt 1.000000 0.500000
vt 0.000000 0.750000
vt 1.000000 0.750000
vt 1.000000 1.000000
vt 0.000000 1.000000
vt 0.000000 0.500000
vt 1.000000 0.500000
vt 0.000000 0.000000
vt 1.000000 0.000000
vt 1.000000 1.000000
vt 0.000000 1.000000
vt 0.000000 0.000000
vt 1.000000 0.000000
vt 1.000000 1.000000
vt 0.000000 1.000000
vt 0.000000 0.000000
vt 1.000000 0.000000
vt 1.000000 1.000000
vt 0.000000 1.000000
vt 0.000000 0.000000
vt 1.000000 0.000000
vt 1.000000 1.000000
vt 0.000000 1.000000
vt 0.000000 0.000000
vt 1.000000 0.000000
vt 1.000000 1.000000
vt 0.000000 1.000000
vt 0.000000 0.000000
vt 1.000000 0.000000
vt 1.000000 1.000000
vt 0.000000 1.000000
vt 0.000000 0.000000
vt 1.000000 0.000000
vt 1.000000 0.250000
vt 0.000000 0.250000
vt 0.000000 0.750000
vt 1.000000 0.750000
vt 1.000000 1.000000
vt 0.000000 1.000000
vt 0.000000 0.500000
vt 1.000000 0.500000
vt 0.000000 0.750000
vt 1.000000 0.750000
vt 1.000000 1.000000
vt 0.000000 1.000000
vt 0.000000 0.500000
vt 1.000000 0.500000
vt 0.000000 0.250000
vt 1.000000 0.250000
vt 0.000000 0.000000
vt 1.000000 0.000000
vt 1.000000 1.000000
vt 0.000000 1.000000
vt 0.000000 0.000000
vt 1.000000 0.000000
vt 1.000000 0.250000
vt 0.000000 0.250000
vt 0.000000 0.000000
vt 1.000000 0.000000
vt 1.000000 0.250000
vt 0.000000 0.250000
vt 0.000000 0.750000
vt 1.000000 0.750000
vt 1.000000 1.000000
vt 0.000000 1.000000
vt 0.000000 0.500000
vt 1.000000 0.500000
vt 0.000000 0.750000
vt 1.000000 0.750000
vt 1.000000 1.000000
vt 0.000000 1.000000
vt 0.000000 0.500000
vt 1.000000 0.500000
vt 0.000000 0.000000
vt 1.000000 0.000000
vt 1.000000 1.000000
vt 0.000000 1.000000
vt 0.000000 0.000000
vt 1.000000 0.000000
vt 1.000000 1.000000
vt 0.000000 1.000000
vt 0.000000 0.000000
vt 1.000000 0.000000
vt 1.000000 1.000000
vt 0.000000 1.000000
vt 0.000000 0.000000
vt 1.000000 0.000000
vt 1.000000 1.000000
vt 0.000000 1.000000
vt 0.000000 0.000000
vt 1.000000 0.000000
vt 1.000000 1.000000
vt 0.000000 1.000000
vt 0.000000 0.000000
vt 1.000000 0.000000
vt 1.000000 1.000000
vt 0.000000 1.000000
vt 1.000000 0.000000
vt 1.000000 0.250000
vt 0.000000 0.250000
vt 0.000000 0.000000
vt 1.000000 0.750000
vt 1.000000 1.000000
vt 0.000000 1.000000
vt 0.000000 0.750000
vt 1.000000 0.500000
vt 0.000000 0.500000
vt 1.000000 0.750000
vt 1.000000 1.000000
vt 0.000000 1.000000
vt 0.000000 0.750000
vt 1.000000 0.500000
vt 0.000000 0.500000
vt 1.000000 0.250000
vt 0.000000 0.250000
vt 1.000000 0.000000
vt 1.000000 1.000000
vt 0.000000 1.000000
vt 0.000000 0.000000
vt 1.000000 0.000000
vt 1.000000 0.250000
vt 1.000000 0.000000
vt 1.000000 0.250000
vt 0.000000 0.250000
vt 0.000000 0.000000
vt 1.000000 0.750000
vt 1.000000 1.000000
vt 0.000000 1.000000
vt 0.000000 0.750000
vt 1.000000 0.500000
vt 0.000000 0.500000
vt 1.000000 0.750000
vt 1.000000 1.000000
vt 0.000000 1.000000
vt 0.000000 0.750000
vt 1.000000 0.500000
vt 0.000000 0.500000
vt 0.000000 1.000000
vt 0.000000 0.000000
vt 1.000000 0.000000
vt 1.000000 1.000000
vt 0.000000 1.000000
vt 0.000000 0.000000
vt 1.000000 0.000000
vt 1.000000 1.000000
vt 1.000000 1.000000
vt 0.000000 1.000000
vt 0.000000 0.000000
vt 1.000000 0.000000
vt 1.000000 1.000000
vt 0.000000 1.000000
vn 0.000899 -0.999999 -0.000888
vn 0.001051 -0.999999 -0.001226
vn 0.000992 -1.000000 -0.000332
vn 0.000891 -0.999999 -0.000864
vn 0.003295 -0.999988 0.003575
vn 0.004988 -0.999983 0.003152
vn 0.004988 -0.999983 0.003152
vn 0.003870 -0.999987 0.003431
vn 0.000978 -0.999999 0.001447
vn 0.001232 -0.999998 0.001705
vn 0.000544 -1.000000 -0.000638
vn 0.000498 -1.000000 -0.000690
vn -0.000284 -0.999999 -0.001140
vn -0.000471 -0.999999 -0.001216
vn -0.001223 -0.999998 -0.001522
vn -0.001223 -0.999998 -0.001522
vn 0.000464 -1.000000 0.000795
vn 0.000518 -1.000000 0.000802
vn 0.000518 -1.000000 0.000802
vn 0.000457 -1.000000 0.000820
vn -0.000347 -0.999999 0.001290
vn -0.000476 -1.000000 0.000774
vn -0.000936 -0.999999 0.000777
vn -0.001229 -0.999999 0.000735
vn -0.001243 -0.999999 0.000679
vn -0.000935 -0.999999 0.000774
vn -0.002297 -0.999997 -0.000342
vn -0.003095 -0.999995 -0.000474
vn -0.003095 -0.999995 -0.000474
vn -0.002358 -0.999997 -0.000352
vn -0.001424 -0.999999 0.000092
vn -0.001443 -0.999999 0.000045
vn -0.000584 -1.000000 0.000548
vn -0.000546 -1.000000 0.000586
vn -0.000118 -1.000000 0.001046
vn -0.000124 -1.000000 0.000847
vn -0.000180 -0.999997 0.002268
vn 0.000064 -0.999998 0.001819
vn 0.000187 -0.999999 0.001567
vn 0.000392 -0.999999 0.001568
vn 0.000363 -0.999999 0.001509
vn 0.000342 -0.999999 0.001468
vn 0.000438 -0.999999 0.001547
vn 0.000409 -0.999999 0.001515
vn 0.000380 -0.999999 0.001485
vn 0.010883 -0.999941 0.000513
vn 0.010883 -0.999941 0.000513
vn 0.010883 -0.999941 0.000513
vn 0.010883 -0.999941 0.000513
vn -0.000861 0.999999 0.000870
vn -0.000860 0.999999 0.000868
vn -0.001080 0.999999 0.000423
vn -0.001044 0.999999 0.001051
vn -0.003066 0.999965 -0.007727
vn -0.003230 0.999961 -0.008164
vn -0.004313 0.999930 -0.011052
vn -0.004313 0.999930 -0.011052
vn -0.001260 0.999998 -0.001292
vn -0.001436 0.999997 -0.001941
vn -0.000528 1.000000 0.000711
vn -0.000503 1.000000 0.000732
vn -0.000130 1.000000 0.000936
vn -0.000089 1.000000 0.000947
vn 0.000149 1.000000 0.001010
vn 0.000149 1.000000 0.001010
vn -0.000357 1.000000 -0.000827
vn -0.000353 1.000000 -0.000843
vn -0.037074 0.999312 -0.000824
vn -0.037074 0.999312 -0.000824
vn -0.000226 1.000000 -0.000950
vn -0.000158 0.999999 -0.001218
vn 0.000907 0.999999 -0.000773
vn 0.000906 0.999999 -0.000772
vn 0.001243 0.999999 -0.000635
vn 0.001228 0.999999 -0.000672
vn 0.001629 0.999999 0.000410
vn 0.001634 0.999999 0.000421
vn 0.001730 0.999998 0.000630
vn 0.001730 0.999998 0.000630
vn 0.001441 0.999999 -0.000102
vn 0.001453 0.999999 -0.000064
vn 0.000528 1.000000 -0.000711
vn 0.000503 1.000000 -0.000733
vn 0.000069 0.999999 -0.001086
vn 0.000089 1.000000 -0.000947
vn -0.000174 0.999999 -0.001493
vn -0.000204 0.999999 -0.001617
vn -0.000159 0.999999 -0.001422
vn -0.000350 0.999999 -0.001515
vn -0.000373 0.999999 -0.001568
vn -0.000333 0.999999 -0.001475
vn -0.000403 0.999999 -0.001519
vn -0.000427 0.999999 -0.001551
vn -0.000378 0.999999 -0.001489
vn -0.007984 0.999968 -0.000180
vn -0.007984 0.999968 -0.000180
vn -0.007984 0.999968 -0.000180
vn -0.007984 0.999968 -0.000180
vn 0.619214 0.740241 0.261950
vn 0.619214 0.740241 0.261950
vn 0.550804 0.713285 0.433403
vn 0.577861 0.725952 0.372922
vn -0.619011 0.775291 -0.125497
vn -0.619011 0.775291 -0.125497
vn -0.631017 0.775599 0.016231
vn -0.631279 0.775208 0.023215
vn 0.293815 0.374385 0.879493
vn 0.275711 0.309742 0.909969
vn 0.243268 0.201668 0.948763
vn 0.243268 0.201669 0.948763
vn 0.050196 0.029049 -0.998317
vn 0.050196 0.029049 -0.998317
vn 0.054426 0.036376 -0.997855
vn 0.054079 0.035775 -0.997896
vn 0.032970 0.099714 -0.994470
vn 0.032472 0.100550 -0.994402
vn 0.318998 0.471702 0.822033
vn 0.318998 0.471702 0.822033
vn 0.029558 0.267981 -0.962971
vn 0.030805 0.293514 -0.955459
vn 0.488171 0.677578 0.550070
vn 0.488171 0.677578 0.550070
vn 0.032136 0.321044 -0.946519
vn 0.032136 0.321044 -0.946519
vn 0.503739 0.770414 -0.390780
vn 0.482685 0.770663 -0.416044
vn 0.579613 0.761669 -0.289672
vn 0.579613 0.761669 -0.289672
vn -0.546075 0.776322 0.314843
vn -0.541495 0.776198 0.322954
vn 0.272153 0.765470 -0.583085
vn 0.231624 0.762437 -0.604186
vn -0.327979 0.757526 0.564432
vn -0.320797 0.757035 0.569199
vn 0.074221 0.752555 -0.654333
vn 0.069674 0.754034 -0.653130
vn -0.156912 0.736286 0.658226
vn -0.157005 0.736274 0.658217
vn 0.002172 0.709313 -0.704890
vn 0.002172 0.709313 -0.704890
vn 0.002172 0.709313 -0.704890
vn 0.002172 0.709313 -0.704890
vn -0.773297 0.634044 -0.000524
vn -0.773297 0.634044 -0.000524
vn 0.002183 0.710203 0.703994
vn 0.002183 0.710203 0.703994
vn 0.002183 0.710203 0.703994
vn 0.002183 0.710203 0.703993
vn -0.076798 0.649777 0.756236
vn -0.076798 0.649777 0.756236
vn -0.076798 0.649777 0.756236
vn -0.076798 0.649777 0.756236
vn -0.579523 0.780857 -0.233272
vn -0.579523 0.780857 -0.233272
vn -0.498030 0.782121 -0.374504
vn -0.510577 0.783222 -0.354789
vn 0.544704 0.775998 0.318001
vn 0.548424 0.776084 0.311328
vn 0.637660 0.770317 -0.000704
vn 0.637662 0.770316 -0.000119
vn -0.108429 0.752478 -0.649631
vn -0.105342 0.753092 -0.649427
vn -0.016889 0.761856 -0.647526
vn -0.016493 0.761867 -0.647523
vn 0.006750 0.746181 0.665709
vn 0.004710 0.746184 0.665723
vn 0.166801 0.737416 0.654519
vn 0.167055 0.737402 0.654469
vn -0.300336 0.766435 -0.567782
vn -0.271469 0.764138 -0.585148
vn 0.335793 0.758334 0.558724
vn 0.330671 0.757998 0.562224
vn -0.502037 0.783159 0.366908
vn -0.485259 0.781565 0.392021
vn -0.575970 0.780824 0.242020
vn -0.575970 0.780823 0.242020
vn 0.631110 0.763252 -0.138373
vn 0.631110 0.763252 -0.138373
vn -0.319902 0.746484 0.583459
vn -0.301643 0.741263 0.599617
vn 0.452554 0.680251 -0.576588
vn 0.452554 0.680251 -0.576588
vn 0.452553 0.680251 -0.576588
vn 0.452554 0.680251 -0.576588
vn -0.211637 0.709866 0.671789
vn -0.211637 0.709866 0.671789
vn -0.808055 0.414244 -0.418867
vn -0.808055 0.414244 -0.418867
vn -0.808055 0.414244 -0.418867
vn -0.808055 0.414244 -0.418867
vn 0.886911 0.424785 0.181513
vn 0.886911 0.424785 0.181513
vn 0.855094 0.491967 0.163654
vn 0.864318 0.473827 0.168647
vn -0.895305 0.445147 -0.016537
vn -0.895382 0.444918 -0.018438
vn -0.893071 0.425948 -0.144885
vn -0.893071 0.425948 -0.144885
vn 0.827180 0.561636 0.018395
vn 0.827123 0.561606 0.021597
vn -0.000240 0.542118 -0.840302
vn -0.000242 0.542117 -0.840303
vn -0.000259 0.542107 -0.840309
vn -0.000259 0.542107 -0.840309
vn -0.885572 0.455462 0.091201
vn -0.885572 0.455462 0.091201
vn 0.824357 0.559433 -0.086425
vn 0.824357 0.559433 -0.086425
vn -0.000225 0.542126 -0.840297
vn -0.000225 0.542126 -0.840297
s 1
g PISTA
usemtl PISTA_1:aiStandardSurface5SG
f 47/136/1 49/135/2 48/134/3 46/133/4
f 51/140/5 53/139/6 52/138/7 50/137/8
f 55/142/9 51/140/5 50/137/8 54/141/10
f 49/135/2 55/142/9 54/141/10 48/134/3
f 57/146/11 47/145/1 46/144/4 56/143/12
f 59/148/13 57/146/11 56/143/12 58/147/14
f 61/150/15 59/148/13 58/147/14 60/149/16
s 3
f 62/154/17 65/153/18 64/152/19 63/151/20
f 63/23/20 67/26/21 66/156/22 62/155/17
f 69/160/23 71/159/24 70/158/25 68/157/26
f 73/164/27 75/163/28 74/162/29 72/161/30
f 77/166/31 73/164/27 72/161/30 76/165/32
f 71/159/24 77/166/31 76/165/32 70/158/25
f 79/170/33 69/169/23 68/168/26 78/167/34
f 81/172/35 79/170/33 78/167/34 80/171/36
f 67/26/21 81/172/35 80/171/36 66/156/22
f 63/174/20 83/173/37 82/45/38 67/44/21
f 67/47/21 82/50/38 84/176/39 81/175/35
f 83/178/37 86/177/40 85/53/41 82/52/38
f 82/55/38 85/58/41 87/180/42 84/179/39
f 86/183/40 89/182/43 88/181/44 85/60/41
f 85/63/41 88/186/44 90/185/45 87/184/42
s off
f 60/149/46 74/162/47 75/163/48 61/150/49
s 6
f 3/67/50 4/68/51 5/69/52 6/70/53
f 7/71/54 8/72/55 9/73/56 10/74/57
f 11/75/58 12/76/59 8/72/55 7/71/54
f 6/70/53 5/69/52 12/76/59 11/75/58
f 13/77/60 14/78/61 4/79/51 3/80/50
f 15/81/62 16/82/63 14/78/61 13/77/60
f 2/83/64 1/84/65 16/82/63 15/81/62
s 8
f 17/85/66 18/86/67 19/87/68 20/88/69
f 18/89/67 17/90/66 35/91/70 36/92/71
f 22/93/72 21/94/73 29/95/74 30/96/75
f 26/97/76 25/98/77 23/99/78 24/100/79
f 28/101/80 27/102/81 25/98/77 26/97/76
f 30/96/75 29/95/74 27/102/81 28/101/80
f 32/103/82 31/104/83 21/105/73 22/106/72
f 34/107/84 33/108/85 31/104/83 32/103/82
f 36/92/71 35/91/70 33/108/85 34/107/84
f 18/109/67 36/110/71 38/111/86 37/112/87
f 36/113/71 34/114/84 39/115/88 38/116/86
f 37/117/87 38/118/86 41/119/89 40/120/90
f 38/121/86 39/122/88 42/123/91 41/124/89
f 40/125/90 41/126/89 44/127/92 43/128/93
f 41/129/89 42/130/91 45/131/94 44/132/92
s off
f 1/84/95 2/83/96 24/100/97 23/99/98
s 11
f 4/2/99 46/133/100 48/134/101 5/3/102
s 12
f 6/4/103 49/135/104 47/136/105 3/1/106
s 13
f 8/6/107 50/137/108 52/138/109 9/7/110
s 14
f 9/7/111 52/138/112 53/139/113 10/8/114
f 10/8/114 53/139/113 51/140/115 7/5/116
s 13
f 12/10/117 54/141/118 50/137/108 8/6/107
s 14
f 7/5/116 51/140/115 55/142/119 11/9/120
s 11
f 5/3/102 48/134/101 54/141/121 12/10/122
s 14
f 11/9/120 55/142/119 49/135/123 6/4/124
s 15
f 14/12/125 56/143/126 46/144/127 4/13/128
s 12
f 3/14/106 47/145/105 57/146/129 13/11/130
s 15
f 16/16/131 58/147/132 56/143/126 14/12/125
s 12
f 13/11/130 57/146/129 59/148/133 15/15/134
s 15
f 1/18/135 60/149/136 58/147/132 16/16/131
s 12
f 15/15/134 59/148/133 61/150/137 2/17/138
s off
f 18/20/139 63/151/140 64/152/141 19/21/142
s 8
f 19/21/68 64/152/143 65/153/144 20/22/69
s off
f 20/22/145 65/153/146 62/154/147 17/19/148
f 17/24/149 62/155/150 66/156/151 35/25/152
s 15
f 21/28/153 68/157/154 70/158/155 29/29/156
s 12
f 30/30/157 71/159/158 69/160/159 22/27/160
s 15
f 25/32/161 72/161/162 74/162/163 23/33/164
s 12
f 24/34/165 75/163/166 73/164/167 26/31/168
s 15
f 27/36/169 76/165/170 72/161/162 25/32/161
s 12
f 26/31/168 73/164/167 77/166/171 28/35/172
s 15
f 29/29/156 70/158/155 76/165/170 27/36/169
s 12
f 28/35/172 77/166/171 71/159/158 30/30/157
s 19
f 31/38/173 78/167/174 68/168/175 21/39/176
s 12
f 22/40/160 69/169/159 79/170/177 32/37/178
s 19
f 33/42/179 80/171/180 78/167/174 31/38/173
s off
f 32/37/181 79/170/182 81/172/183 34/41/184
s 19
f 35/25/185 66/156/186 80/171/180 33/42/179
s off
f 37/46/187 83/173/188 63/174/189 18/43/190
s 20
f 34/48/191 81/175/192 84/176/193 39/49/194
s 21
f 40/54/195 86/177/196 83/178/197 37/51/198
s 20
f 39/56/194 84/179/193 87/180/199 42/57/200
s 22
f 44/61/201 88/181/202 89/182/203 43/62/204
s 21
f 43/62/205 89/182/206 86/183/196 40/59/195
s 20
f 42/64/200 87/184/199 90/185/207 45/65/208
s 22
f 45/65/209 90/185/210 88/186/202 44/66/201
s 12
f 2/17/138 61/150/137 75/163/166 24/34/165
s 15
f 23/33/164 74/162/163 60/149/136 1/18/135
