# This file uses centimeters as units for non-parametric coordinates.

mtllib PISTA_1.mtl
g default
v 48.754936 0.140829 -58.921295
v 60.048592 0.130842 -55.891838
v 42.589119 0.137429 -39.320381
v 42.589127 0.147416 -51.438194
v 39.194889 0.155524 -52.766228
v 35.335285 0.145537 -40.936611
v 35.246037 0.161752 -58.653786
v 35.953609 0.171739 -58.921310
v 35.393307 0.179847 -62.471588
v 35.279530 0.169860 -60.214668
v 35.289799 0.153645 -54.217388
v 36.797676 0.163631 -55.424004
v 51.678059 0.135233 -41.389557
v 45.827030 0.145220 -52.766228
v 58.010403 0.133038 -48.428291
v 48.067707 0.143025 -55.424004
v 35.415951 0.138634 -62.275784
v 23.314396 0.128647 -62.275784
v 23.314373 0.074974 87.369774
v 35.415928 0.084953 87.369789
v 41.961182 0.147416 -73.273354
v 41.961189 0.137429 -85.391167
v 49.133022 0.179847 -62.275768
v 61.235912 0.169860 -62.275764
v 48.596699 0.171739 -65.790237
v 59.891605 0.161752 -68.819695
v 47.752632 0.163631 -69.287544
v 57.696438 0.153645 -76.283241
v 45.355419 0.155524 -71.945320
v 51.207111 0.145537 -83.321976
v 38.723278 0.145220 -71.945320
v 32.872250 0.135233 -83.321991
v 36.482601 0.143025 -69.287544
v 26.539906 0.133038 -76.283257
v 35.795372 0.140829 -65.790253
v 24.501717 0.130842 -68.819710
v 16.549706 0.117422 -65.717903
v 16.549719 0.118861 -71.417931
v 16.549740 0.120300 -77.854004
v 9.965608 0.106935 -66.785995
v 9.965620 0.109158 -72.486023
v 9.965641 0.111381 -78.922104
v 3.380469 0.096270 -66.207039
v 3.380480 0.098917 -71.907066
v 3.380500 0.101563 -78.343147
v 42.419144 -2.817381 -54.956230
v 42.419136 -2.833193 -35.769691
v 39.820431 -2.807791 -56.142258
v 33.709393 -2.823603 -37.412029
v 36.543091 -2.792761 -60.451649
v 35.038033 -2.808573 -58.749619
v 35.366825 -2.783051 -63.659325
v 35.186680 -2.798863 -60.085869
v 37.880909 -2.799542 -58.348400
v 34.815716 -2.815354 -55.213257
v 44.138550 -2.818635 -56.110222
v 53.402679 -2.834448 -38.097157
v 45.238541 -2.820892 -57.693504
v 60.981140 -2.836704 -46.616962
v 45.419518 -2.829211 -59.858742
v 63.085361 -2.845023 -55.218143
v 37.883430 -2.818032 -61.316910
v 20.850477 -2.830896 -61.977104
v 19.787193 -2.910816 89.815506
v 38.947987 -2.895016 89.815521
v 38.223789 -2.823176 -64.865372
v 22.651892 -2.836380 -70.052536
v 41.980972 -2.817323 -69.297997
v 41.940765 -2.833136 -88.900169
v 43.672161 -2.808334 -68.602036
v 52.937344 -2.824147 -86.615074
v 45.345493 -2.792260 -64.929581
v 62.929939 -2.808073 -69.523857
v 45.535919 -2.777358 -62.262047
v 64.698822 -2.793170 -62.262039
v 44.927589 -2.800240 -67.015160
v 60.671951 -2.816052 -78.091690
v 40.411758 -2.818635 -68.601326
v 31.147627 -2.834448 -86.614395
v 39.311764 -2.820892 -67.018036
v 24.854311 -2.833699 -77.569229
v 16.554195 -2.848360 -71.418518
v 16.403152 -2.850503 -64.331085
v 16.145803 -2.847032 -79.837799
v 9.970122 -2.858064 -72.487068
v 9.970407 -2.860882 -65.364792
v 9.970177 -2.855088 -81.040466
v 1.464323 -2.871292 -71.632065
v 1.464399 -2.874773 -64.376945
v 1.464260 -2.867811 -80.052597
vt 0.000000 0.000000
vt 1.000000 0.000000
vt 1.000000 0.250000
vt 0.000000 0.250000
vt 0.000000 0.750000
vt 1.000000 0.750000
vt 1.000000 1.000000
vt 0.000000 1.000000
vt 0.000000 0.500000
vt 1.000000 0.500000
vt 0.000000 0.750000
vt 1.000000 0.750000
vt 1.000000 1.000000
vt 0.000000 1.000000
vt 0.000000 0.500000
vt 1.000000 0.500000
vt 0.000000 0.250000
vt 1.000000 0.250000
vt 0.000000 0.000000
vt 1.000000 0.000000
vt 1.000000 1.000000
vt 0.000000 1.000000
vt 0.000000 0.000000
vt 1.000000 0.000000
vt 1.000000 0.250000
vt 0.000000 0.250000
vt 0.000000 0.000000
vt 1.000000 0.000000
vt 1.000000 0.250000
vt 0.000000 0.250000
vt 0.000000 0.750000
vt 1.000000 0.750000
vt 1.000000 1.000000
vt 0.000000 1.000000
vt 0.000000 0.500000
vt 1.000000 0.500000
vt 0.000000 0.750000
vt 1.000000 0.750000
vt 1.000000 1.000000
vt 0.000000 1.000000
vt 0.000000 0.500000
vt 1.000000 0.500000
vt 0.000000 0.000000
vt 1.000000 0.000000
vt 1.000000 1.000000
vt 0.000000 1.000000
vt 0.000000 0.000000
vt 1.000000 0.000000
vt 1.000000 1.000000
vt 0.000000 1.000000
vt 0.000000 0.000000
vt 1.000000 0.000000
vt 1.000000 1.000000
vt 0.000000 1.000000
vt 0.000000 0.000000
vt 1.000000 0.000000
vt 1.000000 1.000000
vt 0.000000 1.000000
vt 0.000000 0.000000
vt 1.000000 0.000000
vt 1.000000 1.000000
vt 0.000000 1.000000
vt 0.000000 0.000000
vt 1.000000 0.000000
vt 1.000000 1.000000
vt 0.000000 1.000000
vt 0.000000 0.000000
vt 1.000000 0.000000
vt 1.000000 0.250000
vt 0.000000 0.250000
vt 0.000000 0.750000
vt 1.000000 0.750000
vt 1.000000 1.000000
vt 0.000000 1.000000
vt 0.000000 0.500000
vt 1.000000 0.500000
vt 0.000000 0.750000
vt 1.000000 0.750000
vt 1.000000 1.000000
vt 0.000000 1.000000
vt 0.000000 0.500000
vt 1.000000 0.500000
vt 0.000000 0.250000
vt 1.000000 0.250000
vt 0.000000 0.000000
vt 1.000000 0.000000
vt 1.000000 1.000000
vt 0.000000 1.000000
vt 0.000000 0.000000
vt 1.000000 0.000000
vt 1.000000 0.250000
vt 0.000000 0.250000
vt 0.000000 0.000000
vt 1.000000 0.000000
vt 1.000000 0.250000
vt 0.000000 0.250000
vt 0.000000 0.750000
vt 1.000000 0.750000
vt 1.000000 1.000000
vt 0.000000 1.000000
vt 0.000000 0.500000
vt 1.000000 0.500000
vt 0.000000 0.750000
vt 1.000000 0.750000
vt 1.000000 1.000000
vt 0.000000 1.000000
vt 0.000000 0.500000
vt 1.000000 0.500000
vt 0.000000 0.000000
vt 1.000000 0.000000
vt 1.000000 1.000000
vt 0.000000 1.000000
vt 0.000000 0.000000
vt 1.000000 0.000000
vt 1.000000 1.000000
vt 0.000000 1.000000
vt 0.000000 0.000000
vt 1.000000 0.000000
vt 1.000000 1.000000
vt 0.000000 1.000000
vt 0.000000 0.000000
vt 1.000000 0.000000
vt 1.000000 1.000000
vt 0.000000 1.000000
vt 0.000000 0.000000
vt 1.000000 0.000000
vt 1.000000 1.000000
vt 0.000000 1.000000
vt 0.000000 0.000000
vt 1.000000 0.000000
vt 1.000000 1.000000
vt 0.000000 1.000000
vt 1.000000 0.000000
vt 1.000000 0.250000
vt 0.000000 0.250000
vt 0.000000 0.000000
vt 1.000000 0.750000
vt 1.000000 1.000000
vt 0.000000 1.000000
vt 0.000000 0.750000
vt 1.000000 0.500000
vt 0.000000 0.500000
vt 1.000000 0.750000
vt 1.000000 1.000000
vt 0.000000 1.000000
vt 0.000000 0.750000
vt 1.000000 0.500000
vt 0.000000 0.500000
vt 1.000000 0.250000
vt 0.000000 0.250000
vt 1.000000 0.000000
vt 1.000000 1.000000
vt 0.000000 1.000000
vt 0.000000 0.000000
vt 1.000000 0.000000
vt 1.000000 0.250000
vt 1.000000 0.000000
vt 1.000000 0.250000
vt 0.000000 0.250000
vt 0.000000 0.000000
vt 1.000000 0.750000
vt 1.000000 1.000000
vt 0.000000 1.000000
vt 0.000000 0.750000
vt 1.000000 0.500000
vt 0.000000 0.500000
vt 1.000000 0.750000
vt 1.000000 1.000000
vt 0.000000 1.000000
vt 0.000000 0.750000
vt 1.000000 0.500000
vt 0.000000 0.500000
vt 0.000000 1.000000
vt 0.000000 0.000000
vt 1.000000 0.000000
vt 1.000000 1.000000
vt 0.000000 1.000000
vt 0.000000 0.000000
vt 1.000000 0.000000
vt 1.000000 1.000000
vt 1.000000 1.000000
vt 0.000000 1.000000
vt 0.000000 0.000000
vt 1.000000 0.000000
vt 1.000000 1.000000
vt 0.000000 1.000000
vn -0.000889 -0.999999 -0.000899
vn -0.001225 -0.999999 -0.001051
vn -0.000332 -0.999999 -0.000992
vn -0.000865 -0.999999 -0.000891
vn 0.003574 -0.999988 -0.003296
vn 0.003154 -0.999983 -0.004987
vn 0.003154 -0.999983 -0.004987
vn 0.003431 -0.999987 -0.003870
vn 0.001446 -0.999999 -0.000978
vn 0.001704 -0.999998 -0.001232
vn -0.000638 -1.000000 -0.000544
vn -0.000690 -1.000000 -0.000498
vn -0.001139 -0.999999 0.000284
vn -0.001215 -0.999999 0.000471
vn -0.001522 -0.999998 0.001222
vn -0.001522 -0.999998 0.001222
vn 0.000795 -1.000000 -0.000464
vn 0.000801 -1.000000 -0.000518
vn 0.000801 -1.000000 -0.000518
vn 0.000820 -1.000000 -0.000457
vn 0.001289 -0.999999 0.000347
vn 0.000774 -1.000000 0.000476
vn 0.000777 -0.999999 0.000936
vn 0.000735 -0.999999 0.001229
vn 0.000679 -0.999999 0.001243
vn 0.000775 -0.999999 0.000935
vn -0.000342 -0.999997 0.002297
vn -0.000474 -0.999995 0.003095
vn -0.000474 -0.999995 0.003095
vn -0.000352 -0.999997 0.002358
vn 0.000092 -0.999999 0.001424
vn 0.000045 -0.999999 0.001443
vn 0.000549 -1.000000 0.000584
vn 0.000586 -1.000000 0.000546
vn 0.001046 -1.000000 0.000118
vn 0.000846 -1.000000 0.000124
vn 0.002268 -0.999997 0.000180
vn 0.001819 -0.999998 -0.000064
vn 0.001567 -0.999999 -0.000187
vn 0.001568 -0.999999 -0.000392
vn 0.001509 -0.999999 -0.000363
vn 0.001467 -0.999999 -0.000342
vn 0.001547 -0.999999 -0.000438
vn 0.001515 -0.999999 -0.000409
vn 0.001484 -0.999999 -0.000380
vn 0.000513 -0.999941 -0.010883
vn 0.000513 -0.999941 -0.010883
vn 0.000513 -0.999941 -0.010883
vn 0.000513 -0.999941 -0.010883
vn 0.000870 0.999999 0.000861
vn 0.000868 0.999999 0.000860
vn 0.000424 0.999999 0.001080
vn 0.001050 0.999999 0.001044
vn -0.007728 0.999965 0.003066
vn -0.008166 0.999961 0.003230
vn -0.011062 0.999930 0.004312
vn -0.011062 0.999929 0.004312
vn -0.001290 0.999998 0.001260
vn -0.001939 0.999997 0.001436
vn 0.000711 1.000000 0.000528
vn 0.000732 1.000000 0.000503
vn 0.000936 1.000000 0.000130
vn 0.000947 1.000000 0.000089
vn 0.001011 1.000000 -0.000149
vn 0.001011 1.000000 -0.000149
vn -0.000827 1.000000 0.000357
vn -0.000843 1.000000 0.000353
vn -0.000824 0.999312 0.037074
vn -0.000824 0.999312 0.037074
vn -0.000950 1.000000 0.000226
vn -0.001218 0.999999 0.000158
vn -0.000773 0.999999 -0.000907
vn -0.000772 0.999999 -0.000906
vn -0.000635 0.999999 -0.001243
vn -0.000672 0.999999 -0.001228
vn 0.000410 0.999999 -0.001629
vn 0.000421 0.999999 -0.001634
vn 0.000630 0.999998 -0.001730
vn 0.000630 0.999998 -0.001730
vn -0.000102 0.999999 -0.001441
vn -0.000064 0.999999 -0.001453
vn -0.000711 1.000000 -0.000528
vn -0.000732 1.000000 -0.000503
vn -0.001086 0.999999 -0.000069
vn -0.000947 1.000000 -0.000089
vn -0.001493 0.999999 0.000174
vn -0.001616 0.999999 0.000204
vn -0.001422 0.999999 0.000159
vn -0.001515 0.999999 0.000350
vn -0.001568 0.999999 0.000373
vn -0.001475 0.999999 0.000333
vn -0.001520 0.999999 0.000403
vn -0.001550 0.999999 0.000427
vn -0.001490 0.999999 0.000378
vn -0.000180 0.999968 0.007984
vn -0.000180 0.999968 0.007984
vn -0.000180 0.999968 0.007984
vn -0.000180 0.999968 0.007984
vn 0.261949 0.740241 -0.619214
vn 0.261949 0.740241 -0.619214
vn 0.433404 0.713284 -0.550806
vn 0.372922 0.725951 -0.577862
vn -0.125496 0.775291 0.619011
vn -0.125496 0.775291 0.619011
vn 0.016231 0.775599 0.631017
vn 0.023216 0.775209 0.631279
vn 0.879495 0.374382 -0.293814
vn 0.909969 0.309742 -0.275711
vn 0.948763 0.201669 -0.243268
vn 0.948763 0.201669 -0.243268
vn -0.998317 0.029046 -0.050199
vn -0.998317 0.029046 -0.050199
vn -0.997855 0.036373 -0.054423
vn -0.997896 0.035772 -0.054077
vn -0.994470 0.099715 -0.032968
vn -0.994402 0.100551 -0.032470
vn 0.822035 0.471699 -0.318997
vn 0.822035 0.471699 -0.318997
vn -0.962970 0.267983 -0.029559
vn -0.955458 0.293515 -0.030805
vn 0.550072 0.677575 -0.488173
vn 0.550072 0.677575 -0.488173
vn -0.946519 0.321045 -0.032136
vn -0.946519 0.321044 -0.032136
vn -0.390780 0.770413 -0.503740
vn -0.416045 0.770662 -0.482686
vn -0.289671 0.761669 -0.579614
vn -0.289671 0.761669 -0.579614
vn 0.314843 0.776322 0.546075
vn 0.322954 0.776199 0.541495
vn -0.583087 0.765469 -0.272153
vn -0.604187 0.762436 -0.231623
vn 0.564432 0.757527 0.327979
vn 0.569198 0.757036 0.320797
vn -0.654333 0.752555 -0.074221
vn -0.653129 0.754034 -0.069674
vn 0.658224 0.736287 0.156913
vn 0.658216 0.736275 0.157006
vn -0.704890 0.709314 -0.002172
vn -0.704890 0.709314 -0.002172
vn -0.704890 0.709314 -0.002172
vn -0.704890 0.709314 -0.002172
vn -0.000523 0.634044 0.773297
vn -0.000523 0.634044 0.773297
vn 0.703994 0.710203 -0.002183
vn 0.703994 0.710203 -0.002183
vn 0.703994 0.710203 -0.002183
vn 0.703994 0.710203 -0.002183
vn 0.756234 0.649779 0.076796
vn 0.756234 0.649779 0.076796
vn 0.756234 0.649779 0.076796
vn 0.756234 0.649779 0.076796
vn -0.233275 0.780855 0.579524
vn -0.233275 0.780855 0.579524
vn -0.374505 0.782120 0.498030
vn -0.354790 0.783221 0.510577
vn 0.318001 0.775997 -0.544705
vn 0.311328 0.776084 -0.548425
vn -0.000704 0.770317 -0.637661
vn -0.000118 0.770316 -0.637663
vn -0.649630 0.752479 0.108429
vn -0.649426 0.753093 0.105342
vn -0.647525 0.761857 0.016891
vn -0.647522 0.761869 0.016496
vn 0.665708 0.746182 -0.006750
vn 0.665722 0.746185 -0.004710
vn 0.654518 0.737416 -0.166802
vn 0.654469 0.737403 -0.167056
vn -0.567781 0.766436 0.300335
vn -0.585148 0.764139 0.271467
vn 0.558723 0.758335 -0.335794
vn 0.562223 0.757998 -0.330672
vn 0.366910 0.783158 0.502036
vn 0.392021 0.781565 0.485258
vn 0.242024 0.780821 0.575971
vn 0.242024 0.780821 0.575971
vn -0.138372 0.763252 -0.631110
vn -0.138372 0.763252 -0.631110
vn 0.583457 0.746486 0.319901
vn 0.599615 0.741264 0.301643
vn -0.576589 0.680251 -0.452553
vn -0.576589 0.680251 -0.452553
vn -0.576589 0.680251 -0.452553
vn -0.576589 0.680250 -0.452553
vn 0.671788 0.709866 0.211637
vn 0.671788 0.709866 0.211637
vn -0.418866 0.414244 0.808055
vn -0.418866 0.414244 0.808055
vn -0.418866 0.414244 0.808055
vn -0.418866 0.414244 0.808055
vn 0.181513 0.424787 -0.886910
vn 0.181513 0.424787 -0.886910
vn 0.163654 0.491968 -0.855093
vn 0.168648 0.473829 -0.864317
vn -0.016537 0.445148 0.895304
vn -0.018438 0.444918 0.895381
vn -0.144886 0.425946 0.893072
vn -0.144886 0.425946 0.893072
vn 0.018396 0.561636 -0.827180
vn 0.021597 0.561606 -0.827123
vn -0.840301 0.542120 0.000241
vn -0.840302 0.542119 0.000243
vn -0.840309 0.542108 0.000261
vn -0.840309 0.542108 0.000261
vn 0.091201 0.455465 0.885570
vn 0.091201 0.455465 0.885570
vn -0.086424 0.559433 -0.824358
vn -0.086424 0.559433 -0.824358
vn -0.840296 0.542129 0.000226
vn -0.840296 0.542129 0.000226
s 1
g PISTA
usemtl aiStandardSurface5SG
f 47/136/1 49/135/2 48/134/3 46/133/4
f 51/140/5 53/139/6 52/138/7 50/137/8
f 55/142/9 51/140/5 50/137/8 54/141/10
f 49/135/2 55/142/9 54/141/10 48/134/3
f 57/146/11 47/145/1 46/144/4 56/143/12
f 59/148/13 57/146/11 56/143/12 58/147/14
f 61/150/15 59/148/13 58/147/14 60/149/16
s 3
f 62/154/17 65/153/18 64/152/19 63/151/20
f 63/23/20 67/26/21 66/156/22 62/155/17
f 69/160/23 71/159/24 70/158/25 68/157/26
f 73/164/27 75/163/28 74/162/29 72/161/30
f 77/166/31 73/164/27 72/161/30 76/165/32
f 71/159/24 77/166/31 76/165/32 70/158/25
f 79/170/33 69/169/23 68/168/26 78/167/34
f 81/172/35 79/170/33 78/167/34 80/171/36
f 67/26/21 81/172/35 80/171/36 66/156/22
f 63/174/20 83/173/37 82/45/38 67/44/21
f 67/47/21 82/50/38 84/176/39 81/175/35
f 83/178/37 86/177/40 85/53/41 82/52/38
f 82/55/38 85/58/41 87/180/42 84/179/39
f 86/183/40 89/182/43 88/181/44 85/60/41
f 85/63/41 88/186/44 90/185/45 87/184/42
s off
f 60/149/46 74/162/47 75/163/48 61/150/49
s 6
f 3/67/50 4/68/51 5/69/52 6/70/53
f 7/71/54 8/72/55 9/73/56 10/74/57
f 11/75/58 12/76/59 8/72/55 7/71/54
f 6/70/53 5/69/52 12/76/59 11/75/58
f 13/77/60 14/78/61 4/79/51 3/80/50
f 15/81/62 16/82/63 14/78/61 13/77/60
f 2/83/64 1/84/65 16/82/63 15/81/62
s 8
f 17/85/66 18/86/67 19/87/68 20/88/69
f 18/89/67 17/90/66 35/91/70 36/92/71
f 22/93/72 21/94/73 29/95/74 30/96/75
f 26/97/76 25/98/77 23/99/78 24/100/79
f 28/101/80 27/102/81 25/98/77 26/97/76
f 30/96/75 29/95/74 27/102/81 28/101/80
f 32/103/82 31/104/83 21/105/73 22/106/72
f 34/107/84 33/108/85 31/104/83 32/103/82
f 36/92/71 35/91/70 33/108/85 34/107/84
f 18/109/67 36/110/71 38/111/86 37/112/87
f 36/113/71 34/114/84 39/115/88 38/116/86
f 37/117/87 38/118/86 41/119/89 40/120/90
f 38/121/86 39/122/88 42/123/91 41/124/89
f 40/125/90 41/126/89 44/127/92 43/128/93
f 41/129/89 42/130/91 45/131/94 44/132/92
s off
f 1/84/95 2/83/96 24/100/97 23/99/98
s 11
f 4/2/99 46/133/100 48/134/101 5/3/102
s 12
f 6/4/103 49/135/104 47/136/105 3/1/106
s 13
f 8/6/107 50/137/108 52/138/109 9/7/110
s 14
f 9/7/111 52/138/112 53/139/113 10/8/114
f 10/8/114 53/139/113 51/140/115 7/5/116
s 13
f 12/10/117 54/141/118 50/137/108 8/6/107
s 14
f 7/5/116 51/140/115 55/142/119 11/9/120
s 11
f 5/3/102 48/134/101 54/141/121 12/10/122
s 14
f 11/9/120 55/142/119 49/135/123 6/4/124
s 15
f 14/12/125 56/143/126 46/144/127 4/13/128
s 12
f 3/14/106 47/145/105 57/146/129 13/11/130
s 15
f 16/16/131 58/147/132 56/143/126 14/12/125
s 12
f 13/11/130 57/146/129 59/148/133 15/15/134
s 15
f 1/18/135 60/149/136 58/147/132 16/16/131
s 12
f 15/15/134 59/148/133 61/150/137 2/17/138
s off
f 18/20/139 63/151/140 64/152/141 19/21/142
s 8
f 19/21/68 64/152/143 65/153/144 20/22/69
s off
f 20/22/145 65/153/146 62/154/147 17/19/148
f 17/24/149 62/155/150 66/156/151 35/25/152
s 15
f 21/28/153 68/157/154 70/158/155 29/29/156
s 12
f 30/30/157 71/159/158 69/160/159 22/27/160
s 15
f 25/32/161 72/161/162 74/162/163 23/33/164
s 12
f 24/34/165 75/163/166 73/164/167 26/31/168
s 15
f 27/36/169 76/165/170 72/161/162 25/32/161
s 12
f 26/31/168 73/164/167 77/166/171 28/35/172
s 15
f 29/29/156 70/158/155 76/165/170 27/36/169
s 12
f 28/35/172 77/166/171 71/159/158 30/30/157
s 19
f 31/38/173 78/167/174 68/168/175 21/39/176
s 12
f 22/40/160 69/169/159 79/170/177 32/37/178
s 19
f 33/42/179 80/171/180 78/167/174 31/38/173
s off
f 32/37/181 79/170/182 81/172/183 34/41/184
s 19
f 35/25/185 66/156/186 80/171/180 33/42/179
s off
f 37/46/187 83/173/188 63/174/189 18/43/190
s 20
f 34/48/191 81/175/192 84/176/193 39/49/194
s 21
f 40/54/195 86/177/196 83/178/197 37/51/198
s 20
f 39/56/194 84/179/193 87/180/199 42/57/200
s 22
f 44/61/201 88/181/202 89/182/203 43/62/204
s 21
f 43/62/205 89/182/206 86/183/196 40/59/195
s 20
f 42/64/200 87/184/199 90/185/207 45/65/208
s 22
f 45/65/209 90/185/210 88/186/202 44/66/201
s 12
f 2/17/138 61/150/137 75/163/166 24/34/165
s 15
f 23/33/164 74/162/163 60/149/136 1/18/135
