# This file uses centimeters as units for non-parametric coordinates.

mtllib ROCA_3.mtl
g default
v -1.045545 -0.000001 1.035458
v 1.237178 -0.000001 1.429810
v -1.045545 2.002937 1.035458
v 1.237178 2.002937 1.429810
v -0.899053 2.002937 -1.648833
v 1.301916 1.814866 -1.540147
v -0.899053 -0.000001 -1.648833
v 1.301916 -0.000001 -1.540147
v -0.393588 2.521291 0.738789
v 0.792462 2.521291 0.738789
v 0.792462 2.352098 -0.804169
v -0.393588 2.352098 -0.804169
v -1.299143 -0.000001 -0.839809
v -1.279254 -0.000001 0.644613
v -1.279254 1.564485 0.644613
v -1.299143 1.564485 -0.839809
v -0.525260 -0.000001 1.903068
v 0.971468 -0.000001 1.803635
v 0.971468 1.178302 1.803635
v -0.525260 1.178302 1.903068
v -0.363299 1.306376 -2.243816
v 0.618507 1.306376 -1.945978
v 0.618507 -0.000000 -1.945978
v -0.363299 -0.000000 -2.243816
v 1.587468 -0.000000 -0.942515
v 1.784554 -0.000000 0.979422
v 1.587468 1.399625 -0.942515
v 1.784554 1.587697 0.979422
vt 0.375000 0.000000
vt 0.625000 0.000000
vt 0.375000 0.250000
vt 0.625000 0.250000
vt 0.375000 0.500000
vt 0.625000 0.500000
vt 0.375000 0.750000
vt 0.625000 0.750000
vt 0.375000 1.000000
vt 0.625000 1.000000
vt 0.875000 0.000000
vt 0.875000 0.250000
vt 0.125000 0.000000
vt 0.125000 0.250000
vt 0.375000 0.250000
vt 0.625000 0.250000
vt 0.625000 0.500000
vt 0.375000 0.500000
vt 0.125000 0.000000
vt 0.375000 0.000000
vt 0.375000 0.250000
vt 0.125000 0.250000
vt 0.375000 0.000000
vt 0.625000 0.000000
vt 0.625000 0.250000
vt 0.375000 0.250000
vt 0.375000 0.500000
vt 0.625000 0.500000
vt 0.625000 0.750000
vt 0.375000 0.750000
vt 0.625000 0.000000
vt 0.875000 0.000000
vt 0.875000 0.250000
vt 0.625000 0.250000
vn 0.066288 0.000000 0.997801
vn 0.066288 0.000000 0.997801
vn 0.066288 0.000000 0.997801
vn 0.066288 0.000000 0.997801
vn 0.000000 0.994042 -0.109001
vn 0.000000 0.994042 -0.109001
vn 0.000000 0.994042 -0.109001
vn 0.000000 0.994042 -0.109001
vn 0.290295 0.000000 -0.956937
vn 0.290295 0.000000 -0.956937
vn 0.290295 0.000000 -0.956937
vn 0.290295 0.000000 -0.956937
vn 0.000000 -1.000000 -0.000000
vn 0.000000 -1.000000 -0.000000
vn 0.000000 -1.000000 -0.000000
vn 0.000000 -1.000000 -0.000000
vn 0.994783 0.000000 -0.102011
vn 0.994783 0.000000 -0.102011
vn 0.994783 0.000000 -0.102011
vn 0.994783 0.000000 -0.102011
vn -0.999910 0.000000 0.013397
vn -0.999910 0.000000 0.013397
vn -0.999910 0.000000 0.013397
vn -0.999910 0.000000 0.013397
vn -0.081113 0.695962 0.713483
vn -0.081113 0.695962 0.713483
vn -0.081113 0.695962 0.713483
vn -0.081113 0.695962 0.713483
vn 0.740273 0.670962 -0.042497
vn 0.740273 0.670962 -0.042497
vn 0.740273 0.670962 -0.042497
vn 0.740273 0.670962 -0.042497
vn 0.063996 0.870497 -0.487996
vn 0.063996 0.870497 -0.487996
vn 0.063996 0.870497 -0.487996
vn 0.063996 0.870497 -0.487996
vn -0.582842 0.810878 -0.052653
vn -0.582842 0.810878 -0.052653
vn -0.582842 0.810878 -0.052653
vn -0.582842 0.810878 -0.052653
vn 0.000002 -1.000000 0.000000
vn 0.000002 -1.000000 0.000000
vn 0.000002 -1.000000 0.000000
vn 0.000002 -1.000000 0.000000
vn -0.858264 -0.000000 0.513208
vn -0.858264 -0.000000 0.513208
vn -0.858264 -0.000000 0.513208
vn -0.858264 -0.000000 0.513208
vn -0.815792 0.577815 -0.024775
vn -0.815792 0.577815 -0.024775
vn -0.815792 0.577815 -0.024775
vn -0.815792 0.577815 -0.024775
vn -0.896378 0.000000 -0.443290
vn -0.896378 0.000000 -0.443290
vn -0.896378 0.000000 -0.443290
vn -0.896378 0.000000 -0.443290
vn 0.000000 -1.000000 -0.000001
vn 0.000000 -1.000000 -0.000001
vn 0.000000 -1.000000 -0.000001
vn 0.000000 -1.000000 -0.000001
vn 0.815080 0.000000 0.579349
vn 0.815080 0.000000 0.579349
vn 0.815080 0.000000 0.579349
vn 0.815080 0.000000 0.579349
vn -0.062582 0.594026 0.802008
vn -0.062582 0.594026 0.802008
vn -0.062582 0.594026 0.802008
vn -0.062582 0.594026 0.802008
vn -0.857616 -0.000000 0.514291
vn -0.857616 -0.000000 0.514291
vn -0.857616 -0.000000 0.514291
vn -0.857616 -0.000000 0.514291
vn 0.135212 0.623180 -0.770301
vn 0.135212 0.623180 -0.770301
vn 0.135212 0.623180 -0.770301
vn 0.135212 0.623180 -0.770301
vn 0.510591 0.000000 -0.859824
vn 0.510591 0.000000 -0.859824
vn 0.510591 0.000000 -0.859824
vn 0.510591 0.000000 -0.859824
vn 0.000000 -1.000000 -0.000001
vn 0.000000 -1.000000 -0.000001
vn 0.000000 -1.000000 -0.000001
vn 0.000000 -1.000000 -0.000001
vn -0.743127 0.000000 -0.669151
vn -0.743127 0.000000 -0.669151
vn -0.743127 0.000000 -0.669151
vn -0.743127 0.000000 -0.669151
vn 0.000002 -1.000000 -0.000000
vn 0.000002 -1.000000 -0.000000
vn 0.000002 -1.000000 -0.000000
vn 0.000002 -1.000000 -0.000000
vn 0.902294 0.000000 -0.431121
vn 0.902294 0.000000 -0.431121
vn 0.902294 0.000000 -0.431121
vn 0.902294 0.000000 -0.431121
vn 0.710625 0.699770 -0.073032
vn 0.710625 0.699770 -0.073032
vn 0.710625 0.699770 -0.073032
vn 0.710625 0.699770 -0.073032
vn 0.635377 0.000000 0.772202
vn 0.635377 0.000000 0.772202
vn 0.635377 0.000000 0.772202
vn 0.635377 0.000000 0.772202
s off
g ROCA_3
usemtl initialShadingGroup
f 17/23/1 18/24/2 19/25/3 20/26/4
f 9/15/5 10/16/6 11/17/7 12/18/8
f 21/27/9 22/28/10 23/29/11 24/30/12
f 7/7/13 8/8/14 2/10/15 1/9/16
f 26/31/17 25/32/18 27/33/19 28/34/20
f 13/19/21 14/20/22 15/21/23 16/22/24
f 3/3/25 4/4/26 10/16/27 9/15/28
f 4/4/29 6/6/30 11/17/31 10/16/32
f 6/6/33 5/5/34 12/18/35 11/17/36
f 5/5/37 3/3/38 9/15/39 12/18/40
f 7/13/41 1/1/42 14/20/43 13/19/44
f 1/1/45 3/3/46 15/21/47 14/20/48
f 3/3/49 5/14/50 16/22/51 15/21/52
f 5/14/53 7/13/54 13/19/55 16/22/56
f 1/1/57 2/2/58 18/24/59 17/23/60
f 2/2/61 4/4/62 19/25/63 18/24/64
f 4/4/65 3/3/66 20/26/67 19/25/68
f 3/3/69 1/1/70 17/23/71 20/26/72
f 5/5/73 6/6/74 22/28/75 21/27/76
f 6/6/77 8/8/78 23/29/79 22/28/80
f 8/8/81 7/7/82 24/30/83 23/29/84
f 7/7/85 5/5/86 21/27/87 24/30/88
f 2/2/89 8/11/90 25/32/91 26/31/92
f 8/11/93 6/12/94 27/33/95 25/32/96
f 6/12/97 4/4/98 28/34/99 27/33/100
f 4/4/101 2/2/102 26/31/103 28/34/104
